<?xml version="1.0" encoding="utf-8"?>
<!-- Generator: Adobe Illustrator 18.1.1, SVG Export Plug-In . SVG Version: 6.00 Build 0)  -->
<svg version="1.1" id="Camada_1" xmlns="http://www.w3.org/2000/svg" xmlns:xlink="http://www.w3.org/1999/xlink" x="0px" y="0px"
	 viewBox="0 0 250 45" enable-background="new 0 0 250 45" xml:space="preserve">
<g>
	<text transform="matrix(1 0 0 1 -4.353113e-03 41.876)" fill="#FFFFFF" font-family="'Avenir-Black'" font-size="40.3805">ARTIGO19</text>
	<g>
		<polygon fill="#FFFFFF" points="241.4,20.4 237.5,30.6 237.4,30.6 233.6,20.4 231.2,20.4 229.7,20.4 218.9,20.4 218.9,23.4 
			223.3,23.4 223.3,35.9 226.7,35.9 226.7,23.4 230.9,23.4 235.9,35.9 238.6,35.9 245.1,20.4 		"/>
		<g id="GlhWmX.tif_1_">
			<g>
				<path fill="#FFFFFF" d="M231.4,11.4c0.2-0.2,0.3-0.4,0.4-0.5c2.7-2.7,5.4-5.4,8.1-8.1c0.2-0.2,0.5-0.4,0.8-0.6
					c0.5-0.2,1.1,0,1.4,0.5c0.3,0.4,0.3,1,0,1.5c-0.1,0.1-0.2,0.2-0.3,0.3c-2.6,2.6-5.3,5.3-7.9,7.9c-0.1,0.1-0.2,0.2-0.4,0.4
					c0.3,0,0.5,0,0.7,0c2.8,0,5.6,0,8.3,0c3.6,0,6.6,2.5,7.2,6c0.2,1.1,0.1,2.3,0.2,3.4c0,4.5,0,8.9,0,13.4c0,3.8-3.3,7.1-7.1,7.2
					c-6,0-12,0-17.9,0c-1.5,0-3.1,0-4.6,0c-4.2,0-7.5-3.3-7.5-7.5c0-5,0-10.1,0-15.1c0-4,3.3-7.3,7.3-7.3c2.8,0,5.6,0,8.5,0
					c0.2,0,0.4,0,0.6,0c0,0,0.1-0.1,0.1-0.1c-0.2-0.1-0.3-0.2-0.5-0.3c-2.6-2.6-5.3-5.2-7.9-7.9c-0.5-0.5-0.6-1.1-0.3-1.6
					c0.3-0.5,0.9-0.8,1.4-0.6c0.3,0.1,0.6,0.3,0.8,0.5c2.7,2.7,5.4,5.4,8.2,8.2C231.2,11,231.2,11.2,231.4,11.4z M231.4,40.2
					L231.4,40.2c3.8,0,7.5,0,11.3,0c2.6,0,4.7-2.2,4.7-4.7c0-5.1,0-10.2,0-15.3c0-1.1-0.4-2-1-2.9c-1.1-1.3-2.5-1.9-4.2-1.9
					c-3.7,0-7.4,0-11,0c-3.6,0-7.1,0-10.7,0c-3.1,0-5.1,2.1-5.1,5.2c0,4.9,0,9.7,0,14.6c0,3,2.1,5.1,5.1,5.1
					C224.1,40.2,227.7,40.2,231.4,40.2z"/>
			</g>
		</g>
	</g>
</g>
</svg>
