<?xml version="1.0" encoding="UTF-8" standalone="no"?>
<!-- Generator: Adobe Illustrator 18.1.1, SVG Export Plug-In . SVG Version: 6.00 Build 0)  -->

<svg
   xmlns:dc="http://purl.org/dc/elements/1.1/"
   xmlns:cc="http://creativecommons.org/ns#"
   xmlns:rdf="http://www.w3.org/1999/02/22-rdf-syntax-ns#"
   xmlns:svg="http://www.w3.org/2000/svg"
   xmlns="http://www.w3.org/2000/svg"
   xmlns:sodipodi="http://sodipodi.sourceforge.net/DTD/sodipodi-0.dtd"
   xmlns:inkscape="http://www.inkscape.org/namespaces/inkscape"
   version="1.1"
   id="Camada_1"
   x="0px"
   y="0px"
   viewBox="0 0 250 45"
   enable-background="new 0 0 250 45"
   xml:space="preserve"
   inkscape:version="0.48.5 r10040"
   width="100%"
   height="100%"
   sodipodi:docname="ARTIGO 19 TV.svg"><metadata
     id="metadata20"><rdf:RDF><cc:Work
         rdf:about=""><dc:format>image/svg+xml</dc:format><dc:type
           rdf:resource="http://purl.org/dc/dcmitype/StillImage" /><dc:title></dc:title></cc:Work></rdf:RDF></metadata><defs
     id="defs18" /><sodipodi:namedview
     pagecolor="#ffffff"
     bordercolor="#666666"
     borderopacity="1"
     objecttolerance="10"
     gridtolerance="10"
     guidetolerance="10"
     inkscape:pageopacity="0"
     inkscape:pageshadow="2"
     inkscape:window-width="2560"
     inkscape:window-height="1327"
     id="namedview16"
     showgrid="false"
     inkscape:zoom="3.456"
     inkscape:cx="125.5787"
     inkscape:cy="22.5"
     inkscape:window-x="0"
     inkscape:window-y="55"
     inkscape:window-maximized="1"
     inkscape:current-layer="g3" /><g
     id="g3"
     style="fill:#000000"><g
       transform="matrix(1 0 0 1 -4.353113e-03 41.876)"
       style="font-size:40.38050079px;font-family:Avenir-Black"
       id="text5"><path
         d="m -0.0403805,0 6.9454461,0 2.3824496,-6.0570751 11.1046378,0 L 22.855363,0 l 7.106969,0 -12.437195,-28.589395 -5.209084,0 L -0.0403805,0 m 18.2923665,-11.387301 -6.985826,0 3.472723,-8.88371 3.513103,8.88371"
         style="font-style:normal;font-variant:normal;font-weight:800;font-stretch:normal;fill:#ffffff;font-family:Avenir LT Std;-inkscape-font-specification:Avenir LT Std Ultra-Bold"
         id="path3009" /><path
         d="m 32.798431,0 6.299358,0 0,-11.427682 3.109299,0 L 48.183402,0 55.734556,0 48.466065,-12.07377 c 4.038046,-0.726848 6.178217,-3.836151 6.178217,-7.833817 0,-6.662776 -4.926427,-8.681808 -10.781594,-8.681808 l -11.064257,0 0,28.589395 m 6.299358,-23.259168 4.118811,0 c 2.301687,0 4.886041,0.444188 4.886041,3.311201 0,3.109295 -2.988159,3.190059 -5.289846,3.190059 l -3.715006,0 0,-6.50126"
         style="font-style:normal;font-variant:normal;font-weight:800;font-stretch:normal;fill:#ffffff;font-family:Avenir LT Std;-inkscape-font-specification:Avenir LT Std Ultra-Bold"
         id="path3011" /><path
         d="m 63.804976,0 6.299359,0 0,-23.016885 8.156861,0 0,-5.57251 -22.613081,0 0,5.57251 8.156861,0 0,23.016885"
         style="font-style:normal;font-variant:normal;font-weight:800;font-stretch:normal;fill:#ffffff;font-family:Avenir LT Std;-inkscape-font-specification:Avenir LT Std Ultra-Bold"
         id="path3013" /><path
         d="m 81.379324,0 6.299358,0 0,-28.589395 -6.299358,0 0,28.589395"
         style="font-style:normal;font-variant:normal;font-weight:800;font-stretch:normal;fill:#ffffff;font-family:Avenir LT Std;-inkscape-font-specification:Avenir LT Std Ultra-Bold"
         id="path3015" /><path
         d="m 119.33195,-16.95981 -11.1854,0 0,5.814792 5.12832,0 0,4.6437574 c -1.17103,0.6460873 -3.19006,1.4133175 -5.93593,1.4133175 -5.3706,0 -8.883712,-3.8765334 -8.883712,-9.2067539 0,-5.330221 3.513112,-9.206754 8.883712,-9.206754 3.19005,0 5.24946,0.928753 6.94544,2.705493 l 4.44186,-4.84566 c -2.86701,-2.66511 -6.86469,-3.674626 -11.3873,-3.674626 -8.924084,0 -15.425354,5.855182 -15.425354,15.021547 0,9.1663642 6.50127,15.02154601 15.425354,15.02154601 4.19957,0 8.278,-0.80761195 11.99301,-2.74587401 l 0,-14.940785"
         style="font-style:normal;font-variant:normal;font-weight:800;font-stretch:normal;fill:#ffffff;font-family:Avenir LT Std;-inkscape-font-specification:Avenir LT Std Ultra-Bold"
         id="path3017" /><path
         d="m 123.30312,-14.294697 c 0,9.1663642 6.50127,15.02154601 15.42535,15.02154601 8.92408,0 15.42535,-5.85518181 15.42535,-15.02154601 0,-9.166365 -6.50127,-15.021547 -15.42535,-15.021547 -8.92408,0 -15.42535,5.855182 -15.42535,15.021547 m 6.54164,0 c 0,-5.330221 3.51311,-9.206754 8.88371,-9.206754 5.3706,0 8.88371,3.876533 8.88371,9.206754 0,5.3302205 -3.51311,9.2067539 -8.88371,9.2067539 -5.3706,0 -8.88371,-3.8765334 -8.88371,-9.2067539"
         style="font-style:normal;font-variant:normal;font-weight:800;font-stretch:normal;fill:#ffffff;font-family:Avenir LT Std;-inkscape-font-specification:Avenir LT Std Ultra-Bold"
         id="path3019" /><path
         d="m 167.1576,0 5.81479,0 0,-28.589395 -5.65327,0 -9.32789,7.874198 3.43234,3.957289 5.73403,-5.047562 0,21.80547"
         style="font-style:normal;font-variant:normal;font-weight:800;font-stretch:normal;fill:#ffffff;font-family:Avenir LT Std;-inkscape-font-specification:Avenir LT Std Ultra-Bold"
         id="path3021" /><path
         d="m 185.03797,0 7.38963,0 6.25898,-9.7720812 c 1.81712,-2.8670128 3.43234,-5.3706108 3.43234,-9.4894178 0,-5.895547 -4.68414,-9.812462 -10.66045,-9.812462 -5.97631,0 -10.66045,3.916915 -10.66045,9.812462 0,5.20908 3.59387,9.3278958 8.96447,9.3278958 0.68647,0 1.33255,-0.1211418 1.97864,-0.2826638 L 185.03797,0 m 1.81712,-19.019216 c 0,-2.584349 1.89789,-4.482235 4.60338,-4.482235 2.70549,0 4.60338,1.897886 4.60338,4.482235 0,2.58435 -1.89789,4.482236 -4.60338,4.482236 -2.70549,0 -4.60338,-1.897886 -4.60338,-4.482236"
         style="font-style:normal;font-variant:normal;font-weight:800;font-stretch:normal;fill:#ffffff;font-family:Avenir LT Std;-inkscape-font-specification:Avenir LT Std Ultra-Bold"
         id="path3023" /></g><g
       id="g7"
       style="fill:#ffffff"><path
         style="fill:#ffffff"
         d="m 241.4,20.4 -3.9,10.2 -0.1,0 -3.8,-10.2 -2.4,0 -1.5,0 -10.8,0 0,3 4.4,0 0,12.5 3.4,0 0,-12.5 4.2,0 5,12.5 2.7,0 6.5,-15.5 z"
         id="polygon9" /><g
         id="GlhWmX.tif_1_"
         style="fill:#ffffff"><g
           id="g12"
           style="fill:#ffffff"><path
             fill="#FFFFFF"
             d="M231.4,11.4c0.2-0.2,0.3-0.4,0.4-0.5c2.7-2.7,5.4-5.4,8.1-8.1c0.2-0.2,0.5-0.4,0.8-0.6      c0.5-0.2,1.1,0,1.4,0.5c0.3,0.4,0.3,1,0,1.5c-0.1,0.1-0.2,0.2-0.3,0.3c-2.6,2.6-5.3,5.3-7.9,7.9c-0.1,0.1-0.2,0.2-0.4,0.4      c0.3,0,0.5,0,0.7,0c2.8,0,5.6,0,8.3,0c3.6,0,6.6,2.5,7.2,6c0.2,1.1,0.1,2.3,0.2,3.4c0,4.5,0,8.9,0,13.4c0,3.8-3.3,7.1-7.1,7.2      c-6,0-12,0-17.9,0c-1.5,0-3.1,0-4.6,0c-4.2,0-7.5-3.3-7.5-7.5c0-5,0-10.1,0-15.1c0-4,3.3-7.3,7.3-7.3c2.8,0,5.6,0,8.5,0      c0.2,0,0.4,0,0.6,0c0,0,0.1-0.1,0.1-0.1c-0.2-0.1-0.3-0.2-0.5-0.3c-2.6-2.6-5.3-5.2-7.9-7.9c-0.5-0.5-0.6-1.1-0.3-1.6      c0.3-0.5,0.9-0.8,1.4-0.6c0.3,0.1,0.6,0.3,0.8,0.5c2.7,2.7,5.4,5.4,8.2,8.2C231.2,11,231.2,11.2,231.4,11.4z M231.4,40.2      L231.4,40.2c3.8,0,7.5,0,11.3,0c2.6,0,4.7-2.2,4.7-4.7c0-5.1,0-10.2,0-15.3c0-1.1-0.4-2-1-2.9c-1.1-1.3-2.5-1.9-4.2-1.9      c-3.7,0-7.4,0-11,0c-3.6,0-7.1,0-10.7,0c-3.1,0-5.1,2.1-5.1,5.2c0,4.9,0,9.7,0,14.6c0,3,2.1,5.1,5.1,5.1      C224.1,40.2,227.7,40.2,231.4,40.2z"
             id="path14"
             style="fill:#ffffff" /></g></g></g></g></svg>